# xmcd CD database file
#
# Track frame offsets:
#	187
#	17610
#	42577
#	57742
#	73632
#	99835
#	118760
#	142662
#	163592
#	180295
#	196077
#	215115
#
# Disc length: 3258 seconds
#
# Revision: 0
# Processed by: cddbd v1.5.1PL0 Copyright (c) Steve Scherf et al.
# Submitted via: CDex 1.51
#
DISCID=a40cb80c
DTITLE=嘉手苅林昌 - 彩なす島の伝説 沖縄島唄 Vol.2
DYEAR=1991
DGENRE=邦楽
TTITLE0=時代の流れ
TTITLE1=軍人節〜熊本節
TTITLE2=県道節
TTITLE3=汗水節
TTITLE4=芋掘ナークニ〜山原汀間当
TTITLE5=かいされー
TTITLE6=富原ナークニ〜はんた原
TTITLE7=海のチンボーラ〜赤山
TTITLE8=国頭大福
TTITLE9=ひんすう尾類小
TTITLE10=下千鳥
TTITLE11=嘉手久〜唐船ドーイ
EXTD=YEAR: 1991
EXTT0=
EXTT1=
EXTT2=
EXTT3=
EXTT4=
EXTT5=
EXTT6=
EXTT7=
EXTT8=
EXTT9=
EXTT10=
EXTT11=
PLAYORDER=
